<?xml version="1.0" encoding="UTF-8"?>
<svg xmlns="http://www.w3.org/2000/svg" viewBox="0 0 706 190" width="706" height="190" font-family="Arial, Helvetica, sans-serif">
<defs><marker id="a" markerWidth="9" markerHeight="9" refX="7" refY="4.5" orient="auto"><path d="M0 0L9 4.5L0 9z" fill="#475569"/></marker></defs><rect width="706" height="190" fill="#f8fafc"/>
<rect x="50" y="70" width="70" height="50" rx="0" fill="#60a5fa" stroke="#1d4ed8" stroke-width="1"/><polygon points="150,88 200,88 200,76 230,100 200,124 200,112 150,112" fill="#fbbf24" stroke="#b45309"/><ellipse cx="275" cy="95" rx="30" ry="25" fill="#86efac" stroke="#15803d"/><rect x="44" y="64" width="82" height="62" rx="0" fill="none" stroke="#2563eb" stroke-width="1.5" stroke-dasharray="5 3"/><rect x="41" y="61" width="6" height="6" rx="0" fill="#fff" stroke="#2563eb" stroke-width="1"/><rect x="41" y="92.0" width="6" height="6" rx="0" fill="#fff" stroke="#2563eb" stroke-width="1"/><rect x="41" y="123" width="6" height="6" rx="0" fill="#fff" stroke="#2563eb" stroke-width="1"/><rect x="82.0" y="61" width="6" height="6" rx="0" fill="#fff" stroke="#2563eb" stroke-width="1"/><rect x="82.0" y="123" width="6" height="6" rx="0" fill="#fff" stroke="#2563eb" stroke-width="1"/><rect x="123" y="61" width="6" height="6" rx="0" fill="#fff" stroke="#2563eb" stroke-width="1"/><rect x="123" y="92.0" width="6" height="6" rx="0" fill="#fff" stroke="#2563eb" stroke-width="1"/><rect x="123" y="123" width="6" height="6" rx="0" fill="#fff" stroke="#2563eb" stroke-width="1"/><rect x="146" y="70" width="90" height="60" rx="0" fill="none" stroke="#2563eb" stroke-width="1.5" stroke-dasharray="5 3"/><rect x="143" y="67" width="6" height="6" rx="0" fill="#fff" stroke="#2563eb" stroke-width="1"/><rect x="143" y="97.0" width="6" height="6" rx="0" fill="#fff" stroke="#2563eb" stroke-width="1"/><rect x="143" y="127" width="6" height="6" rx="0" fill="#fff" stroke="#2563eb" stroke-width="1"/><rect x="188.0" y="67" width="6" height="6" rx="0" fill="#fff" stroke="#2563eb" stroke-width="1"/><rect x="188.0" y="127" width="6" height="6" rx="0" fill="#fff" stroke="#2563eb" stroke-width="1"/><rect x="233" y="67" width="6" height="6" rx="0" fill="#fff" stroke="#2563eb" stroke-width="1"/><rect x="233" y="97.0" width="6" height="6" rx="0" fill="#fff" stroke="#2563eb" stroke-width="1"/><rect x="233" y="127" width="6" height="6" rx="0" fill="#fff" stroke="#2563eb" stroke-width="1"/><rect x="243" y="66" width="64" height="58" rx="0" fill="none" stroke="#2563eb" stroke-width="1.5" stroke-dasharray="5 3"/><rect x="240" y="63" width="6" height="6" rx="0" fill="#fff" stroke="#2563eb" stroke-width="1"/><rect x="240" y="92.0" width="6" height="6" rx="0" fill="#fff" stroke="#2563eb" stroke-width="1"/><rect x="240" y="121" width="6" height="6" rx="0" fill="#fff" stroke="#2563eb" stroke-width="1"/><rect x="272.0" y="63" width="6" height="6" rx="0" fill="#fff" stroke="#2563eb" stroke-width="1"/><rect x="272.0" y="121" width="6" height="6" rx="0" fill="#fff" stroke="#2563eb" stroke-width="1"/><rect x="304" y="63" width="6" height="6" rx="0" fill="#fff" stroke="#2563eb" stroke-width="1"/><rect x="304" y="92.0" width="6" height="6" rx="0" fill="#fff" stroke="#2563eb" stroke-width="1"/><rect x="304" y="121" width="6" height="6" rx="0" fill="#fff" stroke="#2563eb" stroke-width="1"/><text x="175" y="166" font-size="12" fill="#475569" text-anchor="middle" font-weight="normal" >Külön-külön kijelölve</text><line x1="330" y1="95" x2="372" y2="95" stroke="#475569" stroke-width="2" marker-end="url(#a)"/><text x="351" y="80" font-size="10" fill="#1e293b" text-anchor="middle" font-weight="normal" >Csoportosítás</text><rect x="430" y="70" width="70" height="50" rx="0" fill="#60a5fa" stroke="#1d4ed8" stroke-width="1"/><polygon points="530,88 580,88 580,76 610,100 580,124 580,112 530,112" fill="#fbbf24" stroke="#b45309"/><ellipse cx="655" cy="95" rx="30" ry="25" fill="#86efac" stroke="#15803d"/><rect x="424" y="56" width="268" height="78" rx="0" fill="none" stroke="#2563eb" stroke-width="1.5" stroke-dasharray="5 3"/><rect x="421" y="53" width="6" height="6" rx="0" fill="#fff" stroke="#2563eb" stroke-width="1"/><rect x="421" y="92.0" width="6" height="6" rx="0" fill="#fff" stroke="#2563eb" stroke-width="1"/><rect x="421" y="131" width="6" height="6" rx="0" fill="#fff" stroke="#2563eb" stroke-width="1"/><rect x="555.0" y="53" width="6" height="6" rx="0" fill="#fff" stroke="#2563eb" stroke-width="1"/><rect x="555.0" y="131" width="6" height="6" rx="0" fill="#fff" stroke="#2563eb" stroke-width="1"/><rect x="689" y="53" width="6" height="6" rx="0" fill="#fff" stroke="#2563eb" stroke-width="1"/><rect x="689" y="92.0" width="6" height="6" rx="0" fill="#fff" stroke="#2563eb" stroke-width="1"/><rect x="689" y="131" width="6" height="6" rx="0" fill="#fff" stroke="#2563eb" stroke-width="1"/><text x="558" y="166" font-size="12" fill="#475569" text-anchor="middle" font-weight="normal" >Egy csoport, egy keret</text>
</svg>
