<?xml version="1.0" encoding="UTF-8"?>
<svg xmlns="http://www.w3.org/2000/svg" viewBox="0 0 640 212" width="640" height="212" font-family="Arial, Helvetica, sans-serif">
<defs><marker id="a" markerWidth="9" markerHeight="9" refX="7" refY="4.5" orient="auto"><path d="M0 0L9 4.5L0 9z" fill="#475569"/></marker></defs><rect width="640" height="212" fill="#f8fafc"/>
<rect x="20" y="40" width="170" height="130" rx="0" fill="#fff" stroke="#94a3b8" stroke-width="1"/><text x="34" y="66" font-size="14" fill="#1e293b" text-anchor="start" font-weight="bold" >Források</text><text x="34" y="96" font-size="12" fill="#1e293b" text-anchor="start" font-weight="normal" >Nagy P. (2021)</text><text x="34" y="120" font-size="12" fill="#1e293b" text-anchor="start" font-weight="normal" >Kiss A. (2019)</text><text x="105" y="194" font-size="12" fill="#475569" text-anchor="middle" font-weight="normal" >Forrásadatbázis</text><line x1="194" y1="105" x2="224" y2="105" stroke="#475569" stroke-width="2" marker-end="url(#a)"/><rect x="230" y="40" width="170" height="130" rx="0" fill="#fff" stroke="#94a3b8" stroke-width="1"/><rect x="244" y="58" width="140" height="5" rx="2" fill="#cbd5e1"/><rect x="244" y="72" width="140" height="5" rx="2" fill="#cbd5e1"/><rect x="244" y="86" width="140" height="5" rx="2" fill="#cbd5e1"/><text x="244" y="112" font-size="12" fill="#1e293b" text-anchor="start" font-weight="normal" >… ahogy írták</text><text x="244" y="130" font-size="12" fill="#2563eb" text-anchor="start" font-weight="bold" >(Nagy, 2021).</text><rect x="244" y="142" width="140" height="5" rx="2" fill="#cbd5e1"/><text x="315" y="194" font-size="12" fill="#475569" text-anchor="middle" font-weight="normal" >Szövegközi hivatkozás</text><line x1="404" y1="105" x2="434" y2="105" stroke="#475569" stroke-width="2" marker-end="url(#a)"/><rect x="440" y="40" width="180" height="130" rx="0" fill="#fff" stroke="#94a3b8" stroke-width="1"/><text x="454" y="66" font-size="14" fill="#1e293b" text-anchor="start" font-weight="bold" >Irodalomjegyzék</text><text x="454" y="96" font-size="11" fill="#1e293b" text-anchor="start" font-weight="normal" >Kiss, A. (2019). Adatok.</text><text x="454" y="120" font-size="11" fill="#1e293b" text-anchor="start" font-weight="normal" >Nagy, P. (2021). Mérések.</text><text x="530" y="194" font-size="12" fill="#475569" text-anchor="middle" font-weight="normal" >Betűrendben, a stílus szerint</text>
</svg>
