<?xml version="1.0" encoding="UTF-8"?>
<svg xmlns="http://www.w3.org/2000/svg" viewBox="0 0 640 262" width="640" height="262" font-family="Arial, Helvetica, sans-serif">
<defs><marker id="a" markerWidth="9" markerHeight="9" refX="7" refY="4.5" orient="auto"><path d="M0 0L9 4.5L0 9z" fill="#475569"/></marker></defs><rect width="640" height="262" fill="#f8fafc"/>
<text x="320.0" y="18" font-size="13" fill="#475569" text-anchor="middle" font-weight="normal" >Címoldal után induló oldalszámozás</text><rect x="60" y="44" width="120" height="168" rx="0" fill="#fff" stroke="#94a3b8" stroke-width="1"/><rect x="85" y="80" width="70" height="10" rx="0" fill="#94a3b8" stroke="#94a3b8" stroke-width="1"/><rect x="90" y="104" width="60" height="5" rx="2" fill="#cbd5e1"/><rect x="90" y="118" width="60" height="5" rx="2" fill="#cbd5e1"/><rect x="90" y="132" width="60" height="5" rx="2" fill="#cbd5e1"/><text x="120" y="234" font-size="13" fill="#1e293b" text-anchor="middle" font-weight="normal" >Címoldal</text><rect x="270" y="44" width="120" height="168" rx="0" fill="#fff" stroke="#94a3b8" stroke-width="1"/><rect x="284" y="62" width="92" height="5" rx="2" fill="#cbd5e1"/><rect x="284" y="76" width="92" height="5" rx="2" fill="#cbd5e1"/><rect x="284" y="90" width="92" height="5" rx="2" fill="#cbd5e1"/><rect x="284" y="104" width="92" height="5" rx="2" fill="#cbd5e1"/><rect x="284" y="118" width="92" height="5" rx="2" fill="#cbd5e1"/><rect x="284" y="132" width="92" height="5" rx="2" fill="#cbd5e1"/><rect x="284" y="146" width="92" height="5" rx="2" fill="#cbd5e1"/><text x="330" y="203" font-size="12" fill="#1e293b" text-anchor="middle" font-weight="normal" >1</text><text x="330" y="234" font-size="13" fill="#1e293b" text-anchor="middle" font-weight="normal" >1. oldal</text><rect x="480" y="44" width="120" height="168" rx="0" fill="#fff" stroke="#94a3b8" stroke-width="1"/><rect x="494" y="62" width="92" height="5" rx="2" fill="#cbd5e1"/><rect x="494" y="76" width="92" height="5" rx="2" fill="#cbd5e1"/><rect x="494" y="90" width="92" height="5" rx="2" fill="#cbd5e1"/><rect x="494" y="104" width="92" height="5" rx="2" fill="#cbd5e1"/><rect x="494" y="118" width="92" height="5" rx="2" fill="#cbd5e1"/><rect x="494" y="132" width="92" height="5" rx="2" fill="#cbd5e1"/><rect x="494" y="146" width="92" height="5" rx="2" fill="#cbd5e1"/><text x="540" y="203" font-size="12" fill="#1e293b" text-anchor="middle" font-weight="normal" >2</text><text x="540" y="234" font-size="13" fill="#1e293b" text-anchor="middle" font-weight="normal" >2. oldal</text><text x="120" y="250" font-size="11" fill="#475569" text-anchor="middle" font-weight="normal" >nincs oldalszám</text><line x1="225" y1="40" x2="225" y2="216" stroke="#dc2626" stroke-width="2" stroke-dasharray="6 4"/><text x="225" y="34" font-size="11" fill="#dc2626" text-anchor="middle" font-weight="normal" >szakasztörés</text>
</svg>
