<?xml version="1.0" encoding="UTF-8"?>
<svg xmlns="http://www.w3.org/2000/svg" viewBox="0 0 640 240" width="640" height="240" font-family="Arial, Helvetica, sans-serif">
<defs><marker id="a" markerWidth="9" markerHeight="9" refX="7" refY="4.5" orient="auto"><path d="M0 0L9 4.5L0 9z" fill="#475569"/></marker></defs><rect width="640" height="240" fill="#f8fafc"/>
<rect x="30" y="34" width="270" height="150" rx="0" fill="#fff" stroke="#94a3b8" stroke-width="1"/><rect x="340" y="34" width="270" height="150" rx="0" fill="#fff" stroke="#94a3b8" stroke-width="1"/><text x="48" y="62" font-size="16" fill="#1e293b" text-anchor="start" font-weight="bold" >1 Bevezetés</text><rect x="48" y="78" width="184" height="5" rx="2" fill="#cbd5e1"/><rect x="48" y="92" width="184" height="5" rx="2" fill="#cbd5e1"/><rect x="48" y="106" width="184" height="5" rx="2" fill="#cbd5e1"/><rect x="48" y="120" width="184" height="5" rx="2" fill="#cbd5e1"/><rect x="40" y="42" width="250" height="100" rx="4" fill="none" stroke="#2563eb" stroke-width="2" stroke-dasharray="5 3"/><text x="48" y="172" font-size="1" fill="#1e293b" text-anchor="start" font-weight="normal" ></text><text x="358" y="76" font-size="13" fill="#1e293b" text-anchor="start" font-weight="normal" >Az emelt szintű vizsga</text><rect x="503" y="60" width="48" height="22" rx="0" fill="#fef08a" stroke="#ca8a04" stroke-width="1"/><text x="527" y="76" font-size="13" fill="#1e293b" text-anchor="middle" font-weight="bold" >fontos</text><text x="358" y="104" font-size="13" fill="#1e293b" text-anchor="start" font-weight="normal" >része a megmérettetésnek.</text><text x="165" y="208" font-size="14" fill="#1e293b" text-anchor="middle" font-weight="bold" >Bekezdésstílus</text><text x="475" y="208" font-size="14" fill="#1e293b" text-anchor="middle" font-weight="bold" >Karakterstílus</text><text x="165" y="226" font-size="11" fill="#475569" text-anchor="middle" font-weight="normal" >a teljes bekezdésre</text><text x="475" y="226" font-size="11" fill="#475569" text-anchor="middle" font-weight="normal" >a kijelölt szövegrészre</text>
</svg>
